<svg xmlns="http://www.w3.org/2000/svg" width="500" height="500" viewBox="0 0 500 500"><title>BUMP OF CHICKEN</title><path d="M393.8 36.3L250 53.7 106.2 36.3l-6.2 5.5v202.3l.1.5c.2 1.1 5.1 27 18.6 61 12.5 31.4 35.1 75.9 71.6 108.8l.1.1.1.1 56 46.4 3.5 2.8 3.5-2.8 56-46.4.1-.1.1-.1c36.5-33 59.1-77.4 71.6-108.8 13.5-34 18.4-59.9 18.6-61l.1-.5V41.7l-6.2-5.4zm-91.4 375L250 446.2l-52.4-34.9c-64.5-58.3-85-155.5-86.5-163.1V53.1l138.3 9.7.7.1.7-.1 138.3-9.7v195.1c-1.7 7.6-22.1 104.8-86.7 163.1z"/><path d="M132.7 81.5l4.6 4.7v12.7l-5.4 6.9h-14.3V58.3h14.3l4.7 6v12.5l-3.9 4.7zm-7-14.2v10.1h3.4V67.3h-3.4zm0 19v10.6h3.4V86.3h-3.4zm35.4 13l-5 6.5h-8.6l-5.1-6.5V61.2h7.7v36.2h3.4V61.2h7.7l-.1 38.1zm29.1 6.5h-6.7V78.7h-.3l-3.1 27.1h-2.7l-3.1-27.1h-.3v27.1h-6.7V63.2h8.6l2.6 20.6h.7l2.4-20.6h8.6v42.6zM212 86.6l-4.6 5.6h-4.5v13.6H196V65.9h11.4l4.6 5.8v14.9zm-9.2-13.2v11.3h2.5V73.4h-2.5zm28.3 28.3l-2.9 3.8h-5l-3-3.8V83.1l3-3.8h4.8l3.1 3.8v18.6zm-6.4-17.4v16.3h1.9V84.3h-1.9zm18.3 0h-4.2v4.9h3.5v4.9h-3.5v11.4h-4.5V79.3h8.8v5h-.1zm21.8-.9h-6.1v-7.1H256V99h2.7v-8.7h6.1v10.2l-4.1 5.3h-6.5l-4.5-5.3V74.7l4.1-5.3h6.8l4.1 5.3.1 8.7zm19.5 22.4h-6.5V90.4h-2.7v15.4h-6.5V68h6.5v15.4h2.7V68h6.5v37.8zm10.9 0h-6.9V65.7h6.9v40.1zm21.5-26.2h-7.2v-8.3h-3.2v26.6h3.2V87.6h7.2v12l-4.9 6.2h-7.6l-5.3-6.2V69.4l4.8-6.2h8l4.9 6.2v10.2h.1zm11.8.8l5.1-18.9h7.8l-6.6 20.7 7.6 23.6h-8.3l-5.7-18.9v18.9h-7.6V61.5h7.6v18.9h.1zm30.2-11.6h-6.6v8.6h5.6V86h-5.6v11.3h6.8v8.6h-14.7V60.2h14.5v8.6zm24 37.1h-6.8l-5.4-23.1v23.1h-7.7V58.4h6.9l5.4 22.9V58.4h7.7v47.5h-.1zM222.5 142.4l4.2 12.2 12.9.3-10.2 7.8 3.7 12.3-10.6-7.4-10.6 7.4 3.8-12.3-10.3-7.8 12.9-.3zm55 0l-4.2 12.2-12.9.3 10.2 7.8-3.7 12.3 10.6-7.4 10.6 7.4-3.8-12.3 10.3-7.8-12.9-.3zM250 168l4.2 12.2 12.9.3-10.2 7.8 3.7 12.3-10.6-7.3-10.6 7.3 3.7-12.3-10.2-7.8 12.9-.3zm0-53.8l4.2 12.2 12.9.3-10.2 7.7 3.7 12.4-10.6-7.4-10.6 7.4 3.7-12.4-10.2-7.7 12.9-.3z"/><path d="M379.2 222.5l-2.1-12.7c-.4-2.3-2-2.6-3.8-.8l-.5.5c1.2-18.2-3.2-33.9-3.5-35l-1.7-5.9c6.4-17.5 3.8-31.8 3.6-32.7l-1.6-8.4c-.4-2.3-2.4-2.8-4.7-1.3l-8.3 5.6c-2.3 1.6-57.7 39.1-80.1 62.8-9.4 9.9-19.1 24.4-25.6 39.7-6.5-15.3-16.2-29.8-25.6-39.7-22.5-23.6-77.8-61.2-80.1-62.8l-8.3-5.6c-2.2-1.5-4.2-1-4.7 1.3l-1.6 8.4c-.2.9-2.8 15.1 3.6 32.7l-1.7 5.9c-.3 1.1-4.7 16.8-3.5 35l-.5-.5c-1.8-1.8-3.4-1.5-3.8.8l-2.1 12.7c-.8 4.7-7 46.1 8.3 65.5 7 8.8 19.3 15.4 31.3 21.9 14.3 7.7 29 15.7 32.3 26.2 3.8 12.1 14.6 25.2 25 38 10.2 12.4 20.7 25.2 22.6 34.8l7.9 38c.5 2.3 1.2 2.3 1.6 0l7.9-38c2-9.6 12.5-22.4 22.7-34.8 10.5-12.8 21.3-26 25-38 3.3-10.5 18.1-18.5 32.3-26.2 11.9-6.4 24.3-13.1 31.3-21.9 15.5-19.4 9.2-60.9 8.4-65.5zm-128.3 73c2.3 2.8 5.1 5.4 8.6 7.6 20.8 13.1 12.2 23.4 10.3 25.3-.2.2-.6.6-.8.9-8.3 11.1-16.3 12.8-18 13-1.8-.2-9.7-2-18-13-.2-.3-.5-.6-.8-.9-2-2-10.5-12.2 10.3-25.3 3.2-2.2 6.1-4.7 8.4-7.6zm104.9-18.6c-5 6.3-15.4 11.9-26.3 17.8-16.2 8.7-34.5 18.6-39.4 34.2-3.1 9.9-13.1 22.1-22.8 33.9-6 7.3-11.8 14.5-16.4 21.3-4.6-6.9-10.4-14-16.4-21.3-9.7-11.8-19.7-24.1-22.8-33.9-4.9-15.6-23.2-25.5-39.4-34.2-10.9-5.9-21.3-11.5-26.3-17.8-6.7-8.4-7.9-25.1-7.5-38.8 1.5 1.5 4.1 3.9 6 5.7l52.5 46.1c2 1.7 2.3 1.5.8-.5l-42-56.2c-10.2-13.5-10.2-32.6-8.7-45.5 1.4 1.2 4 3.3 6.1 4.9l65.6 49.5c2.1 1.6 2.4 1.4.7-.5l-56.1-60.3c-10.3-11.4-14-23.6-15.2-32.8 18.2 12.9 48.4 35.1 62.8 50.3 20.6 21.7 44 70.8 20.1 85.9-12.1 7.7-18.8 16.1-19.9 25.2-1.2 9.9 4.8 17 6.7 19 14.5 18.9 31.1 19.4 33 19.4s18.5-.6 33-19.4c1.9-2 7.9-9 6.7-19-1.1-9.1-7.8-17.5-19.9-25.2-23.8-15.1-.5-64.2 20.1-85.9 14.4-15.2 44.7-37.5 62.8-50.3-1.2 9.1-5 21.3-15.2 32.8L281.2 247c-1.7 1.9-1.4 2.1.7.4l66.8-54.7c2-1.7 4.6-3.8 5.9-5 1.5 12.9 1.5 32-8.7 45.5l-47.3 61c-1.5 2-1.2 2.2.8.4l57.8-50.8c2-1.7 4.5-4.1 6-5.7.5 13.7-.7 30.3-7.4 38.8z"/></svg>
